<svg xmlns="http://www.w3.org/2000/svg" version="1.1" xmlns:xlink="http://www.w3.org/1999/xlink" xmlns:svgjs="http://svgjs.dev/svgjs" width="100" height="100"><svg width="100" height="100" viewBox="0 0 100 100" fill="none" xmlns="http://www.w3.org/2000/svg">
<path d="M27.3911 78.6025C26.5683 78.7935 25.7455 78.5707 24.9226 77.9341C24.1631 77.3612 23.6251 76.7246 23.3086 76.0244C22.9288 75.0059 22.6756 74.0511 22.549 73.1599C22.4857 72.205 22.4224 71.1229 22.3591 69.9134L22.2642 66.6669L18.3715 70.1998C16.2195 72.2368 14.194 73.701 12.2952 74.5921C10.4596 75.4197 8.78225 75.8334 7.26316 75.8334C6.56691 75.7061 5.71242 75.2605 4.69969 74.4967C3.75026 73.6691 2.86412 72.7779 2.04128 71.8231C1.28173 70.8046 0.743722 69.977 0.427245 69.3405C0.0474717 68.4493 -0.0791193 67.208 0.0474715 65.6166C0.237358 64.0251 0.617131 62.2746 1.18679 60.3649C1.81975 58.4552 2.57929 56.5773 3.46543 54.7313C4.41486 52.8852 5.49089 51.2938 6.6935 49.957C8.78225 46.7742 11.3774 44.8008 14.4788 44.037C17.5803 43.2094 20.3337 43.4641 22.7389 44.8008C23.8782 45.3738 24.7011 45.5966 25.2074 45.4692C25.7138 45.3419 26.0303 44.9282 26.1569 44.2279C26.4101 43.2094 26.6949 42.2546 27.0114 41.3634C27.3278 40.4722 27.7709 39.1354 28.3406 37.353C29.923 32.5151 31.2838 28.7275 32.4231 25.9903C33.6257 23.2531 34.7018 20.866 35.6512 18.8289C36.3475 17.3648 37.0437 16.3463 37.7399 15.7734C38.4362 15.2005 39.0375 14.9459 39.5439 15.0095C40.2401 15.0095 41.0946 15.2642 42.1073 15.7734C43.1834 16.2827 43.8796 16.9829 44.1961 17.8741C44.4493 18.447 44.5442 19.0517 44.4809 19.6883C44.4809 20.3249 44.291 20.9933 43.9113 21.6935C43.0884 23.2213 42.1073 25.2583 40.968 27.8045C39.892 30.2871 38.7843 33.0244 37.645 36.0162C36.569 39.0081 35.5563 41.9681 34.6068 44.8963C33.6574 47.8245 32.8662 50.4026 32.2332 52.6306C31.8535 54.0311 31.537 55.8134 31.2838 57.9778C31.0939 60.1421 30.9357 62.3701 30.8091 64.6617C30.7458 66.8897 30.7458 68.8949 30.8091 70.6773C30.8724 72.396 30.9673 73.51 31.0939 74.0192C31.4737 75.2924 31.4737 76.2472 31.0939 76.8838C30.7141 77.5203 30.1761 77.9341 29.4799 78.1251C28.7836 78.3797 28.0874 78.5389 27.3911 78.6025ZM11.7255 67.0488C12.6116 66.7306 13.4028 66.3486 14.0991 65.903C14.7953 65.4574 15.6182 64.8845 16.5676 64.1843C18.4665 62.7202 19.8273 61.4471 20.6502 60.3649C21.5363 59.2827 22.2325 57.9459 22.7389 56.3545C23.0554 55.3997 23.0554 54.5721 22.7389 53.8719C22.4857 53.1717 22.011 52.5033 21.3148 51.8667C20.6185 51.2938 19.7324 51.071 18.6564 51.1983C17.5803 51.262 16.3461 51.9304 14.9536 53.2035C13.4345 54.604 12.1369 56.2272 11.0609 58.0732C9.98487 59.9193 9.09873 62.561 8.40248 65.9985C8.27589 66.6351 8.49742 67.0807 9.06708 67.3353C9.63674 67.5899 10.5229 67.4944 11.7255 67.0488Z" fill="#03BC78"></path>
<path d="M69.8634 76.4064C68.914 76.4064 67.9962 76.1199 67.1101 75.547C66.2239 74.9104 65.496 74.0511 64.9264 72.9689C64.3567 71.8231 64.0719 70.4863 64.0719 68.9585C64.0719 68.0037 64.2301 66.6669 64.5466 64.9482C64.9264 63.1658 65.4644 60.9378 66.1606 58.2642C66.2872 57.373 66.3822 56.8001 66.4455 56.5455C66.572 56.2909 66.6353 56.0362 66.6353 55.7816C66.6353 55.6543 66.6037 55.5588 66.5404 55.4952C66.5404 55.3678 66.4771 55.3042 66.3505 55.3042C65.8441 55.3042 65.1479 55.6543 64.2618 56.3545C63.4389 56.9911 62.4895 57.755 61.4135 58.6462C61.2236 58.7735 61.002 58.9326 60.7489 59.1236C60.559 59.3146 60.3374 59.5055 60.0843 59.6965C59.8944 59.8875 59.6728 60.0784 59.4197 60.2694C58.7867 60.6513 57.8056 61.3834 56.4764 62.4656C55.2105 63.5477 53.8813 64.6935 52.4888 65.903C51.1596 67.1125 49.9886 68.131 48.9759 68.9585C48.4695 69.3405 48.0265 69.6588 47.6467 69.9134C47.3302 70.168 47.1087 70.2953 46.9821 70.2953C46.8555 70.2953 46.3491 70.1362 45.463 69.8179C44.6401 69.436 43.8173 68.9267 42.9945 68.2901C42.2349 67.5899 41.8551 66.7942 41.8551 65.903C41.8551 65.3301 42.0767 64.1843 42.5198 62.4656C43.0261 60.7468 43.7224 58.7098 44.6085 56.3545C45.4946 53.9992 46.5074 51.6121 47.6467 49.1932C47.8999 48.6202 48.0898 47.8564 48.2163 46.9015C48.3429 45.9467 48.4695 45.0236 48.5961 44.1324C48.786 43.1776 49.1025 42.4774 49.5455 42.0318C49.7354 41.7135 49.957 41.4907 50.2102 41.3634C50.5266 41.1724 50.8431 41.0769 51.1596 41.0769C51.7925 41.0769 52.3938 41.2361 52.9635 41.5544C53.5332 41.809 54.0712 42.2546 54.5775 42.8911C55.527 43.9097 56.0333 45.1191 56.0966 46.5196C56.2232 47.8564 56.1283 49.1613 55.8118 50.4345C55.4953 51.7076 55.1472 52.7579 54.7674 53.5855C54.3877 54.3493 54.1978 54.6676 54.1978 54.5403C54.451 54.413 54.7991 54.0947 55.2421 53.5855C55.7485 53.0762 56.603 52.4715 57.8056 51.7712C59.4513 50.4981 60.7172 49.6069 61.6033 49.0977C62.4895 48.5248 63.1541 48.111 63.5972 47.8564C64.1035 47.6017 64.5466 47.3153 64.9264 46.997C65.2428 46.7424 65.4644 46.5832 65.591 46.5196C65.7809 46.4559 65.8758 46.4241 65.8758 46.4241C66.0657 46.4241 66.3822 46.2968 66.8252 46.0421C67.3316 45.7875 67.8063 45.6602 68.2494 45.6602C68.8823 45.6602 69.5469 45.8194 70.2432 46.1376C70.9394 46.3923 71.5407 46.7742 72.0471 47.2835C72.5535 47.729 72.8067 48.2065 72.8067 48.7157C72.8067 48.9067 72.8699 49.0658 72.9965 49.1932C73.1231 49.3205 73.2497 49.4796 73.3763 49.6706C73.6928 50.0525 74.0409 50.5936 74.4207 51.2938C74.8638 51.9304 75.0853 52.9807 75.0853 54.4448C75.0853 55.4633 74.8638 56.9593 74.4207 58.9326C73.9776 60.906 73.5029 62.8475 72.9965 64.7572C72.4902 66.7305 72.237 68.322 72.237 69.5314C72.3003 70.6773 72.4269 71.5685 72.6168 72.205C72.8067 72.7779 72.9016 73.2554 72.9016 73.6373C72.9016 74.1465 72.6484 74.7513 72.1421 75.4515C71.6357 76.0881 70.8761 76.4064 69.8634 76.4064Z" fill="#03BC78"></path>
<path d="M79.0714 85C78.3752 85 77.7739 84.8409 77.2675 84.5226C76.8244 84.2043 76.4763 83.8224 76.2231 83.3768C76.2231 82.9312 76.3497 82.5492 76.6029 82.2309C76.8561 81.9127 77.2042 81.5307 77.6473 81.0851C78.3435 80.4485 79.0081 79.6528 79.6411 78.698C80.274 77.8068 80.8437 76.8838 81.3501 75.9289C81.9197 74.9741 82.3628 74.2102 82.6793 73.6373C82.9325 72.9371 83.1856 72.1095 83.4388 71.1547C83.692 70.1998 83.9452 69.1495 84.1984 68.0037C84.1984 67.4944 84.1984 67.0488 84.1984 66.6669C84.2617 66.2213 84.4199 65.8712 84.6731 65.6166C85.1794 65.171 85.7807 64.789 86.477 64.4707C87.2365 64.0888 87.9644 64.2161 88.6607 64.8527C89.4202 65.4256 89.9899 66.9215 90.3697 69.3405C90.6229 70.7409 90.6229 72.014 90.3697 73.1599C90.1165 74.3057 89.5785 75.7061 88.7556 77.3612C88.629 77.8068 88.1543 78.5389 87.3315 79.5574C86.5086 80.5759 85.6858 81.4989 84.863 82.3264C84.1034 83.2176 83.6287 83.6632 83.4388 83.6632C83.1856 83.6632 82.9641 83.7269 82.7742 83.8542C82.5843 84.0452 82.3628 84.2679 82.1096 84.5226C81.8564 84.7772 81.4767 84.9045 80.9703 84.9045C80.4639 84.9682 79.831 85 79.0714 85ZM95.7814 51.7712C94.4522 52.2168 93.3446 52.4396 92.4584 52.4396C91.5723 52.376 90.5912 51.9622 89.5152 51.1983C88.2493 49.9252 87.8378 48.6521 88.2809 47.3789C88.724 46.0421 89.8633 44.7372 91.6989 43.4641C92.9648 42.7002 93.8826 42.3182 94.4522 42.3182C95.0852 42.2546 96.003 42.4774 97.2056 42.9866C99.2943 44.3234 100.212 45.8194 99.9589 47.4744C99.7691 49.0658 98.3766 50.4981 95.7814 51.7712Z" fill="#03BC78"></path>
</svg><style>@media (prefers-color-scheme: light) { :root { filter: none; } }
@media (prefers-color-scheme: dark) { :root { filter: none; } }
</style></svg>