<svg xmlns="http://www.w3.org/2000/svg" version="1.1" xmlns:xlink="http://www.w3.org/1999/xlink" xmlns:svgjs="http://svgjs.dev/svgjs" width="1000" height="1000"><style>
    #light-icon {
      display: inline;
    }
    #dark-icon {
      display: none;
    }

    @media (prefers-color-scheme: dark) {
      #light-icon {
        display: none;
      }
      #dark-icon {
        display: inline;
      }
    }
  </style><g id="light-icon"><svg xmlns="http://www.w3.org/2000/svg" version="1.1" xmlns:xlink="http://www.w3.org/1999/xlink" xmlns:svgjs="http://svgjs.dev/svgjs" width="1000" height="1000"><g><g transform="matrix(10,0,0,10,0,0)"><svg xmlns="http://www.w3.org/2000/svg" version="1.1" xmlns:xlink="http://www.w3.org/1999/xlink" xmlns:svgjs="http://svgjs.dev/svgjs" width="100" height="100"><svg width="100" height="100" viewBox="0 0 100 100" fill="none" xmlns="http://www.w3.org/2000/svg">
<path d="M29.1998 76.1509C28.4428 76.3255 27.6858 76.1218 26.9288 75.5398C26.23 75.016 25.735 74.434 25.4439 73.7938C25.0945 72.8625 24.8616 71.9895 24.7451 71.1747C24.6869 70.3017 24.6286 69.3123 24.5704 68.2065L24.4831 65.2383L20.9018 68.4684C18.9219 70.3308 17.0585 71.6694 15.3115 72.4842C13.6228 73.2409 12.0797 73.6192 10.6821 73.6192C10.0416 73.5028 9.25543 73.0954 8.32372 72.3969C7.45024 71.6403 6.63499 70.8255 5.87798 69.9525C5.1792 69.0213 4.68422 68.2647 4.39307 67.6827C4.04367 66.8679 3.92721 65.733 4.04367 64.278C4.21837 62.823 4.56776 61.2225 5.09185 59.4765C5.67417 57.7305 6.37295 56.0136 7.1882 54.3257C8.06167 52.6379 9.05162 51.1829 10.158 49.9607C12.0797 47.0507 14.4672 45.2465 17.3205 44.5481C20.1739 43.7915 22.707 44.0243 24.9198 45.2465C25.968 45.7703 26.725 45.974 27.1908 45.8576C27.6567 45.7412 27.9479 45.3629 28.0643 44.7227C28.2973 43.7915 28.5593 42.9185 28.8505 42.1037C29.1416 41.2889 29.5492 40.0667 30.0733 38.437C31.5291 34.0138 32.7811 30.5509 33.8293 28.0483C34.9357 25.5457 35.9256 23.3632 36.7991 21.5007C37.4397 20.1621 38.0802 19.2309 38.7208 18.7071C39.3613 18.1833 39.9145 17.9505 40.3804 18.0087C41.0209 18.0087 41.807 18.2415 42.7388 18.7071C43.7287 19.1727 44.3692 19.8129 44.6604 20.6277C44.8933 21.1515 44.9807 21.7044 44.9225 22.2865C44.9225 22.8685 44.7478 23.4796 44.3984 24.1198C43.6413 25.5166 42.7388 27.379 41.6906 29.707C40.7006 31.9768 39.6816 34.4794 38.6334 37.2148C37.6435 39.9503 36.7118 42.6566 35.8383 45.3338C34.9648 48.011 34.2369 50.3681 33.6546 52.4051C33.3052 53.6855 33.014 55.3151 32.7811 57.294C32.6064 59.2728 32.4608 61.3098 32.3444 63.405C32.2861 65.442 32.2861 67.2753 32.3444 68.9049C32.4026 70.4763 32.4899 71.4948 32.6064 71.9604C32.9558 73.1244 32.9558 73.9975 32.6064 74.5795C32.257 75.1615 31.762 75.5398 31.1215 75.7144C30.4809 75.9472 29.8404 76.0927 29.1998 76.1509ZM14.7875 65.5875C15.6027 65.2965 16.3306 64.9473 16.9712 64.5399C17.6117 64.1325 18.3687 63.6087 19.2422 62.9685C20.9892 61.6299 22.2411 60.4659 22.9981 59.4765C23.8134 58.4871 24.4539 57.2649 24.9198 55.8098C25.211 54.9368 25.211 54.1802 24.9198 53.54C24.6869 52.8998 24.2501 52.2887 23.6096 51.7067C22.969 51.1829 22.1538 50.9792 21.1638 51.0956C20.1739 51.1538 19.0384 51.7649 17.7573 52.9289C16.3597 54.2093 15.166 55.6934 14.176 57.3813C13.1861 59.0691 12.3708 61.4844 11.7303 64.6272C11.6138 65.2092 11.8176 65.6166 12.3417 65.8494C12.8658 66.0822 13.681 65.9949 14.7875 65.5875Z" fill="black"></path>
<path d="M68.2743 74.143C67.4009 74.143 66.5565 73.8811 65.7413 73.3573C64.926 72.7752 64.2563 71.9895 63.7323 71.0001C63.2082 69.9525 62.9461 68.7303 62.9461 67.3335C62.9461 66.4605 63.0917 65.2383 63.3829 63.6669C63.7323 62.0373 64.2272 60.0003 64.8678 57.5559C64.9842 56.7411 65.0716 56.2173 65.1298 55.9844C65.2463 55.7516 65.3045 55.5188 65.3045 55.286C65.3045 55.1696 65.2754 55.0823 65.2172 55.0241C65.2172 54.9077 65.1589 54.8495 65.0425 54.8495C64.5766 54.8495 63.9361 55.1696 63.1208 55.8098C62.3638 56.3919 61.4903 57.0903 60.5004 57.9051C60.3257 58.0215 60.1219 58.167 59.889 58.3416C59.7143 58.5162 59.5104 58.6908 59.2775 58.8654C59.1028 59.04 58.899 59.2146 58.6661 59.3892C58.0838 59.7384 57.1812 60.4077 55.9583 61.3971C54.7937 62.3865 53.5708 63.4341 52.2897 64.5399C51.0668 65.6457 49.9895 66.5769 49.0578 67.3335C48.592 67.6827 48.1843 67.9737 47.835 68.2065C47.5438 68.4393 47.34 68.5557 47.2235 68.5557C47.1071 68.5557 46.6412 68.4102 45.826 68.1192C45.0689 67.77 44.3119 67.3044 43.5549 66.7224C42.8561 66.0822 42.5067 65.3547 42.5067 64.5399C42.5067 64.0161 42.7105 62.9685 43.1182 61.3971C43.584 59.8257 44.2246 57.9633 45.0398 55.8098C45.8551 53.6564 46.7868 51.4739 47.835 49.2623C48.0679 48.7385 48.2426 48.0401 48.359 47.1671C48.4755 46.2941 48.592 45.4502 48.7084 44.6354C48.8831 43.7624 49.1743 43.1222 49.5819 42.7148C49.7566 42.4238 49.9604 42.2201 50.1933 42.1037C50.4845 41.9291 50.7757 41.8418 51.0668 41.8418C51.6491 41.8418 52.2023 41.9873 52.7264 42.2783C53.2505 42.5111 53.7455 42.9185 54.2113 43.5005C55.0848 44.4317 55.5507 45.5375 55.6089 46.8179C55.7254 48.0401 55.638 49.2332 55.3469 50.3972C55.0557 51.5612 54.7354 52.5215 54.386 53.2781C54.0366 53.9765 53.862 54.2675 53.862 54.1511C54.0949 54.0347 54.4152 53.7437 54.8228 53.2781C55.2886 52.8125 56.0748 52.2596 57.1812 51.6194C58.6952 50.4554 59.8598 49.6406 60.6751 49.175C61.4903 48.6512 62.1018 48.2729 62.5094 48.0401C62.9752 47.8073 63.3829 47.5454 63.7323 47.2544C64.0234 47.0216 64.2272 46.8761 64.3437 46.8179C64.5184 46.7597 64.6057 46.7306 64.6057 46.7306C64.7804 46.7306 65.0716 46.6142 65.4792 46.3814C65.9451 46.1486 66.3818 46.0322 66.7894 46.0322C67.3717 46.0322 67.9832 46.1777 68.6237 46.4687C69.2643 46.7015 69.8175 47.0507 70.2833 47.5163C70.7492 47.9237 70.9821 48.3602 70.9821 48.8258C70.9821 49.0004 71.0404 49.1459 71.1568 49.2623C71.2733 49.3787 71.3897 49.5242 71.5062 49.6988C71.7974 50.048 72.1176 50.5427 72.467 51.1829C72.8747 51.7649 73.0785 52.7252 73.0785 54.0638C73.0785 54.995 72.8747 56.3628 72.467 58.167C72.0594 59.9712 71.6227 61.7463 71.1568 63.4923C70.691 65.2965 70.458 66.7515 70.458 67.8573C70.5163 68.9049 70.6327 69.7197 70.8074 70.3017C70.9821 70.8255 71.0695 71.262 71.0695 71.6112C71.0695 72.0768 70.8365 72.6297 70.3707 73.27C69.9048 73.852 69.2061 74.143 68.2743 74.143Z" fill="black"></path>
<path d="M76.7457 82C76.1052 82 75.552 81.8545 75.0861 81.5635C74.6785 81.2725 74.3582 80.9233 74.1253 80.5159C74.1253 80.1085 74.2417 79.7593 74.4747 79.4683C74.7076 79.1773 75.0279 78.8281 75.4355 78.4207C76.076 77.8387 76.6875 77.1112 77.2698 76.2382C77.8521 75.4234 78.3762 74.5795 78.8421 73.7065C79.3661 72.8335 79.7738 72.135 80.0649 71.6112C80.2979 70.971 80.5308 70.2144 80.7637 69.3414C80.9966 68.4684 81.2296 67.5081 81.4625 66.4605C81.4625 65.9949 81.4625 65.5875 81.4625 65.2383C81.5207 64.8309 81.6663 64.5108 81.8992 64.278C82.3651 63.8706 82.9183 63.5214 83.5588 63.2304C84.2576 62.8812 84.9273 62.9976 85.5678 63.5796C86.2666 64.1034 86.7907 65.4711 87.1401 67.6827C87.373 68.9631 87.373 70.1271 87.1401 71.1747C86.9072 72.2223 86.4122 73.5028 85.6552 75.016C85.5387 75.4234 85.102 76.0927 84.345 77.0239C83.588 77.9551 82.8309 78.799 82.0739 79.5556C81.3751 80.3704 80.9384 80.7778 80.7637 80.7778C80.5308 80.7778 80.327 80.836 80.1523 80.9524C79.9776 81.127 79.7738 81.3307 79.5408 81.5635C79.3079 81.7963 78.9585 81.9127 78.4927 81.9127C78.0268 81.9709 77.4445 82 76.7457 82ZM92.1189 51.6194C90.8961 52.0268 89.877 52.2305 89.0618 52.2305C88.2465 52.1723 87.3439 51.794 86.354 51.0956C85.1893 49.9316 84.8108 48.7676 85.2184 47.6036C85.6261 46.3814 86.6742 45.1883 88.363 44.0243C89.5276 43.3259 90.372 42.9767 90.8961 42.9767C91.4784 42.9185 92.3227 43.1222 93.4291 43.5878C95.3508 44.81 96.1952 46.1777 95.9622 47.6909C95.7875 49.1459 94.5064 50.4554 92.1189 51.6194Z" fill="black"></path>
</svg></svg></g></g></svg></g><g id="dark-icon"><svg xmlns="http://www.w3.org/2000/svg" version="1.1" xmlns:xlink="http://www.w3.org/1999/xlink" xmlns:svgjs="http://svgjs.dev/svgjs" width="1000" height="1000"><g><g transform="matrix(10,0,0,10,0,0)"><svg xmlns="http://www.w3.org/2000/svg" version="1.1" xmlns:xlink="http://www.w3.org/1999/xlink" xmlns:svgjs="http://svgjs.dev/svgjs" width="100" height="100"><svg width="100" height="100" viewBox="0 0 100 100" fill="none" xmlns="http://www.w3.org/2000/svg">
<path d="M29.1998 76.1509C28.4428 76.3255 27.6858 76.1218 26.9288 75.5398C26.23 75.016 25.735 74.434 25.4439 73.7938C25.0945 72.8625 24.8616 71.9895 24.7451 71.1747C24.6869 70.3017 24.6286 69.3123 24.5704 68.2065L24.4831 65.2383L20.9018 68.4684C18.9219 70.3308 17.0585 71.6694 15.3115 72.4842C13.6228 73.2409 12.0797 73.6192 10.6821 73.6192C10.0416 73.5028 9.25543 73.0954 8.32372 72.3969C7.45024 71.6403 6.63499 70.8255 5.87798 69.9525C5.1792 69.0213 4.68422 68.2647 4.39307 67.6827C4.04367 66.8679 3.92721 65.733 4.04367 64.278C4.21837 62.823 4.56776 61.2225 5.09185 59.4765C5.67417 57.7305 6.37295 56.0136 7.1882 54.3257C8.06167 52.6379 9.05162 51.1829 10.158 49.9607C12.0797 47.0507 14.4672 45.2465 17.3205 44.5481C20.1739 43.7915 22.707 44.0243 24.9198 45.2465C25.968 45.7703 26.725 45.974 27.1908 45.8576C27.6567 45.7412 27.9479 45.3629 28.0643 44.7227C28.2973 43.7915 28.5593 42.9185 28.8505 42.1037C29.1416 41.2889 29.5492 40.0667 30.0733 38.437C31.5291 34.0138 32.7811 30.5509 33.8293 28.0483C34.9357 25.5457 35.9256 23.3632 36.7991 21.5007C37.4397 20.1621 38.0802 19.2309 38.7208 18.7071C39.3613 18.1833 39.9145 17.9505 40.3804 18.0087C41.0209 18.0087 41.807 18.2415 42.7388 18.7071C43.7287 19.1727 44.3692 19.8129 44.6604 20.6277C44.8933 21.1515 44.9807 21.7044 44.9225 22.2865C44.9225 22.8685 44.7478 23.4796 44.3984 24.1198C43.6413 25.5166 42.7388 27.379 41.6906 29.707C40.7006 31.9768 39.6816 34.4794 38.6334 37.2148C37.6435 39.9503 36.7118 42.6566 35.8383 45.3338C34.9648 48.011 34.2369 50.3681 33.6546 52.4051C33.3052 53.6855 33.014 55.3151 32.7811 57.294C32.6064 59.2728 32.4608 61.3098 32.3444 63.405C32.2861 65.442 32.2861 67.2753 32.3444 68.9049C32.4026 70.4763 32.4899 71.4948 32.6064 71.9604C32.9558 73.1244 32.9558 73.9975 32.6064 74.5795C32.257 75.1615 31.762 75.5398 31.1215 75.7144C30.4809 75.9472 29.8404 76.0927 29.1998 76.1509ZM14.7875 65.5875C15.6027 65.2965 16.3306 64.9473 16.9712 64.5399C17.6117 64.1325 18.3687 63.6087 19.2422 62.9685C20.9892 61.6299 22.2411 60.4659 22.9981 59.4765C23.8134 58.4871 24.4539 57.2649 24.9198 55.8098C25.211 54.9368 25.211 54.1802 24.9198 53.54C24.6869 52.8998 24.2501 52.2887 23.6096 51.7067C22.969 51.1829 22.1538 50.9792 21.1638 51.0956C20.1739 51.1538 19.0384 51.7649 17.7573 52.9289C16.3597 54.2093 15.166 55.6934 14.176 57.3813C13.1861 59.0691 12.3708 61.4844 11.7303 64.6272C11.6138 65.2092 11.8176 65.6166 12.3417 65.8494C12.8658 66.0822 13.681 65.9949 14.7875 65.5875Z" fill="white"></path>
<path d="M68.2743 74.143C67.4009 74.143 66.5565 73.8811 65.7413 73.3573C64.926 72.7752 64.2563 71.9895 63.7323 71.0001C63.2082 69.9525 62.9461 68.7303 62.9461 67.3335C62.9461 66.4605 63.0917 65.2383 63.3829 63.6669C63.7323 62.0373 64.2272 60.0003 64.8678 57.5559C64.9842 56.7411 65.0716 56.2173 65.1298 55.9844C65.2463 55.7516 65.3045 55.5188 65.3045 55.286C65.3045 55.1696 65.2754 55.0823 65.2172 55.0241C65.2172 54.9077 65.1589 54.8495 65.0425 54.8495C64.5766 54.8495 63.9361 55.1696 63.1208 55.8098C62.3638 56.3919 61.4903 57.0903 60.5004 57.9051C60.3257 58.0215 60.1219 58.167 59.889 58.3416C59.7143 58.5162 59.5104 58.6908 59.2775 58.8654C59.1028 59.04 58.899 59.2146 58.6661 59.3892C58.0838 59.7384 57.1812 60.4077 55.9583 61.3971C54.7937 62.3865 53.5708 63.4341 52.2897 64.5399C51.0668 65.6457 49.9895 66.5769 49.0578 67.3335C48.592 67.6827 48.1843 67.9737 47.835 68.2065C47.5438 68.4393 47.34 68.5557 47.2235 68.5557C47.1071 68.5557 46.6412 68.4102 45.826 68.1192C45.0689 67.77 44.3119 67.3044 43.5549 66.7224C42.8561 66.0822 42.5067 65.3547 42.5067 64.5399C42.5067 64.0161 42.7105 62.9685 43.1182 61.3971C43.584 59.8257 44.2246 57.9633 45.0398 55.8098C45.8551 53.6564 46.7868 51.4739 47.835 49.2623C48.0679 48.7385 48.2426 48.0401 48.359 47.1671C48.4755 46.2941 48.592 45.4502 48.7084 44.6354C48.8831 43.7624 49.1743 43.1222 49.5819 42.7148C49.7566 42.4238 49.9604 42.2201 50.1933 42.1037C50.4845 41.9291 50.7757 41.8418 51.0668 41.8418C51.6491 41.8418 52.2023 41.9873 52.7264 42.2783C53.2505 42.5111 53.7455 42.9185 54.2113 43.5005C55.0848 44.4317 55.5507 45.5375 55.6089 46.8179C55.7254 48.0401 55.638 49.2332 55.3469 50.3972C55.0557 51.5612 54.7354 52.5215 54.386 53.2781C54.0366 53.9765 53.862 54.2675 53.862 54.1511C54.0949 54.0347 54.4152 53.7437 54.8228 53.2781C55.2886 52.8125 56.0748 52.2596 57.1812 51.6194C58.6952 50.4554 59.8598 49.6406 60.6751 49.175C61.4903 48.6512 62.1018 48.2729 62.5094 48.0401C62.9752 47.8073 63.3829 47.5454 63.7323 47.2544C64.0234 47.0216 64.2272 46.8761 64.3437 46.8179C64.5184 46.7597 64.6057 46.7306 64.6057 46.7306C64.7804 46.7306 65.0716 46.6142 65.4792 46.3814C65.9451 46.1486 66.3818 46.0322 66.7894 46.0322C67.3717 46.0322 67.9832 46.1777 68.6237 46.4687C69.2643 46.7015 69.8175 47.0507 70.2833 47.5163C70.7492 47.9237 70.9821 48.3602 70.9821 48.8258C70.9821 49.0004 71.0404 49.1459 71.1568 49.2623C71.2733 49.3787 71.3897 49.5242 71.5062 49.6988C71.7974 50.048 72.1176 50.5427 72.467 51.1829C72.8747 51.7649 73.0785 52.7252 73.0785 54.0638C73.0785 54.995 72.8747 56.3628 72.467 58.167C72.0594 59.9712 71.6227 61.7463 71.1568 63.4923C70.691 65.2965 70.458 66.7515 70.458 67.8573C70.5163 68.9049 70.6327 69.7197 70.8074 70.3017C70.9821 70.8255 71.0695 71.262 71.0695 71.6112C71.0695 72.0768 70.8365 72.6297 70.3707 73.27C69.9048 73.852 69.2061 74.143 68.2743 74.143Z" fill="white"></path>
<path d="M76.7457 82C76.1052 82 75.552 81.8545 75.0861 81.5635C74.6785 81.2725 74.3582 80.9233 74.1253 80.5159C74.1253 80.1085 74.2417 79.7593 74.4747 79.4683C74.7076 79.1773 75.0279 78.8281 75.4355 78.4207C76.076 77.8387 76.6875 77.1112 77.2698 76.2382C77.8521 75.4234 78.3762 74.5795 78.8421 73.7065C79.3661 72.8335 79.7738 72.135 80.0649 71.6112C80.2979 70.971 80.5308 70.2144 80.7637 69.3414C80.9966 68.4684 81.2296 67.5081 81.4625 66.4605C81.4625 65.9949 81.4625 65.5875 81.4625 65.2383C81.5207 64.8309 81.6663 64.5108 81.8992 64.278C82.3651 63.8706 82.9183 63.5214 83.5588 63.2304C84.2576 62.8812 84.9273 62.9976 85.5678 63.5796C86.2666 64.1034 86.7907 65.4711 87.1401 67.6827C87.373 68.9631 87.373 70.1271 87.1401 71.1747C86.9072 72.2223 86.4122 73.5028 85.6552 75.016C85.5387 75.4234 85.102 76.0927 84.345 77.0239C83.588 77.9551 82.8309 78.799 82.0739 79.5556C81.3751 80.3704 80.9384 80.7778 80.7637 80.7778C80.5308 80.7778 80.327 80.836 80.1523 80.9524C79.9776 81.127 79.7738 81.3307 79.5408 81.5635C79.3079 81.7963 78.9585 81.9127 78.4927 81.9127C78.0268 81.9709 77.4445 82 76.7457 82ZM92.1189 51.6194C90.8961 52.0268 89.877 52.2305 89.0618 52.2305C88.2465 52.1723 87.3439 51.794 86.354 51.0956C85.1893 49.9316 84.8108 48.7676 85.2184 47.6036C85.6261 46.3814 86.6742 45.1883 88.363 44.0243C89.5276 43.3259 90.372 42.9767 90.8961 42.9767C91.4784 42.9185 92.3227 43.1222 93.4291 43.5878C95.3508 44.81 96.1952 46.1777 95.9622 47.6909C95.7875 49.1459 94.5064 50.4554 92.1189 51.6194Z" fill="white"></path>
</svg></svg></g></g></svg></g></svg>